<mxfile host="65bd71144e">
    <diagram id="jvfPtSKAwpaaLNeFRr7d" name="Page-1">
        <mxGraphModel dx="2266" dy="834" grid="1" gridSize="10" guides="1" tooltips="1" connect="1" arrows="1" fold="1" page="1" pageScale="1" pageWidth="850" pageHeight="1100" math="0" shadow="0">
            <root>
                <mxCell id="0"/>
                <mxCell id="1" parent="0"/>
                <mxCell id="ecSPx89vqx9fiu82OKQT-6" value="" style="edgeStyle=none;html=1;" edge="1" parent="1" source="ecSPx89vqx9fiu82OKQT-1" target="ecSPx89vqx9fiu82OKQT-5">
                    <mxGeometry relative="1" as="geometry"/>
                </mxCell>
                <mxCell id="ecSPx89vqx9fiu82OKQT-8" value="" style="edgeStyle=none;html=1;" edge="1" parent="1" source="ecSPx89vqx9fiu82OKQT-1" target="ecSPx89vqx9fiu82OKQT-7">
                    <mxGeometry relative="1" as="geometry"/>
                </mxCell>
                <mxCell id="ecSPx89vqx9fiu82OKQT-9" value="" style="edgeStyle=none;html=1;" edge="1" parent="1" source="ecSPx89vqx9fiu82OKQT-1" target="ecSPx89vqx9fiu82OKQT-7">
                    <mxGeometry relative="1" as="geometry"/>
                </mxCell>
                <mxCell id="ecSPx89vqx9fiu82OKQT-10" value="" style="edgeStyle=none;html=1;" edge="1" parent="1" source="ecSPx89vqx9fiu82OKQT-1" target="ecSPx89vqx9fiu82OKQT-7">
                    <mxGeometry relative="1" as="geometry"/>
                </mxCell>
                <mxCell id="ecSPx89vqx9fiu82OKQT-12" value="" style="edgeStyle=none;html=1;" edge="1" parent="1" source="ecSPx89vqx9fiu82OKQT-1" target="ecSPx89vqx9fiu82OKQT-11">
                    <mxGeometry relative="1" as="geometry"/>
                </mxCell>
                <mxCell id="ecSPx89vqx9fiu82OKQT-1" value="&lt;font style=&quot;font-size: 24px;&quot;&gt;Table Style&lt;/font&gt;" style="whiteSpace=wrap;html=1;" vertex="1" parent="1">
                    <mxGeometry x="-80" y="90" width="120" height="60" as="geometry"/>
                </mxCell>
                <mxCell id="ecSPx89vqx9fiu82OKQT-14" value="" style="edgeStyle=none;html=1;" edge="1" parent="1" source="ecSPx89vqx9fiu82OKQT-2" target="ecSPx89vqx9fiu82OKQT-13">
                    <mxGeometry relative="1" as="geometry"/>
                </mxCell>
                <mxCell id="ecSPx89vqx9fiu82OKQT-17" value="" style="edgeStyle=none;html=1;" edge="1" parent="1" source="ecSPx89vqx9fiu82OKQT-2" target="ecSPx89vqx9fiu82OKQT-16">
                    <mxGeometry relative="1" as="geometry"/>
                </mxCell>
                <mxCell id="ecSPx89vqx9fiu82OKQT-2" value="&lt;font style=&quot;font-size: 24px;&quot;&gt;Answering/Entering Details Style&lt;/font&gt;" style="whiteSpace=wrap;html=1;" vertex="1" parent="1">
                    <mxGeometry x="570" y="80" width="245" height="70" as="geometry"/>
                </mxCell>
                <mxCell id="ecSPx89vqx9fiu82OKQT-19" style="edgeStyle=none;html=1;entryX=0.25;entryY=0;entryDx=0;entryDy=0;" edge="1" parent="1" source="ecSPx89vqx9fiu82OKQT-3" target="ecSPx89vqx9fiu82OKQT-2">
                    <mxGeometry relative="1" as="geometry">
                        <Array as="points">
                            <mxPoint x="600" y="60"/>
                        </Array>
                    </mxGeometry>
                </mxCell>
                <mxCell id="ecSPx89vqx9fiu82OKQT-3" value="&lt;font style=&quot;font-size: 24px;&quot;&gt;Division of page into 2 categories&lt;/font&gt;" style="text;strokeColor=none;align=center;fillColor=none;html=1;verticalAlign=middle;whiteSpace=wrap;rounded=0;" vertex="1" parent="1">
                    <mxGeometry x="243" y="20" width="365" height="20" as="geometry"/>
                </mxCell>
                <mxCell id="ecSPx89vqx9fiu82OKQT-5" value="&lt;font style=&quot;font-size: 18px;&quot;&gt;Queue Page&lt;/font&gt;" style="whiteSpace=wrap;html=1;" vertex="1" parent="1">
                    <mxGeometry x="-210" y="250" width="120" height="60" as="geometry"/>
                </mxCell>
                <mxCell id="ecSPx89vqx9fiu82OKQT-7" value="&lt;font style=&quot;font-size: 18px;&quot;&gt;Grade Viewer&lt;/font&gt;" style="whiteSpace=wrap;html=1;" vertex="1" parent="1">
                    <mxGeometry x="90" y="250" width="120" height="60" as="geometry"/>
                </mxCell>
                <mxCell id="ecSPx89vqx9fiu82OKQT-11" value="&lt;font style=&quot;font-size: 18px;&quot;&gt;Bathroom System&lt;/font&gt;" style="whiteSpace=wrap;html=1;" vertex="1" parent="1">
                    <mxGeometry x="-60" y="250" width="120" height="60" as="geometry"/>
                </mxCell>
                <mxCell id="ecSPx89vqx9fiu82OKQT-13" value="&lt;font style=&quot;font-size: 18px;&quot;&gt;Assignment Submission&lt;/font&gt;" style="whiteSpace=wrap;html=1;" vertex="1" parent="1">
                    <mxGeometry x="520" y="250" width="120" height="60" as="geometry"/>
                </mxCell>
                <mxCell id="ecSPx89vqx9fiu82OKQT-16" value="&lt;font style=&quot;font-size: 18px;&quot;&gt;Weekly Project Submission&lt;/font&gt;" style="whiteSpace=wrap;html=1;" vertex="1" parent="1">
                    <mxGeometry x="710" y="250" width="130" height="60" as="geometry"/>
                </mxCell>
                <mxCell id="ecSPx89vqx9fiu82OKQT-18" style="edgeStyle=none;html=1;entryX=0.403;entryY=-0.014;entryDx=0;entryDy=0;entryPerimeter=0;" edge="1" parent="1" source="ecSPx89vqx9fiu82OKQT-3" target="ecSPx89vqx9fiu82OKQT-1">
                    <mxGeometry relative="1" as="geometry">
                        <Array as="points">
                            <mxPoint x="240" y="60"/>
                        </Array>
                    </mxGeometry>
                </mxCell>
                <UserObject label="&lt;a target=&quot;_blank&quot; rel=&quot;noopener noreferrer&quot; href=&quot;https://private-user-images.githubusercontent.com/76639609/430221640-31090e08-cc83-4ea0-bd20-ea13d9234f04.png?jwt=eyJhbGciOiJIUzI1NiIsInR5cCI6IkpXVCJ9.eyJpc3MiOiJnaXRodWIuY29tIiwiYXVkIjoicmF3LmdpdGh1YnVzZXJjb250ZW50LmNvbSIsImtleSI6ImtleTUiLCJleHAiOjE3NDU0NzEzNDUsIm5iZiI6MTc0NTQ3MTA0NSwicGF0aCI6Ii83NjYzOTYwOS80MzAyMjE2NDAtMzEwOTBlMDgtY2M4My00ZWEwLWJkMjAtZWExM2Q5MjM0ZjA0LnBuZz9YLUFtei1BbGdvcml0aG09QVdTNC1ITUFDLVNIQTI1NiZYLUFtei1DcmVkZW50aWFsPUFLSUFWQ09EWUxTQTUzUFFLNFpBJTJGMjAyNTA0MjQlMkZ1cy1lYXN0LTElMkZzMyUyRmF3czRfcmVxdWVzdCZYLUFtei1EYXRlPTIwMjUwNDI0VDA1MDQwNVomWC1BbXotRXhwaXJlcz0zMDAmWC1BbXotU2lnbmF0dXJlPTBhMjQyM2FkYjU5ODJjYjBmMDI3OGRlZTIzMTExODRjMDcwYzBmMTM5ZjhhMmI0YTI1MzcyMDQwZDBmZmIwZGMmWC1BbXotU2lnbmVkSGVhZGVycz1ob3N0In0.uBy3kD3WrcdDDVJZgsoagmg8w9VwMjuszQxuFpHYJYU&quot; style=&quot;box-sizing: border-box; background-color: transparent; color: var(--fgColor-accent, var(--color-accent-fg)); text-decoration: underline; text-underline-offset: 0.2rem; font-family: -apple-system, BlinkMacSystemFont, &amp;quot;Segoe UI&amp;quot;, &amp;quot;Noto Sans&amp;quot;, Helvetica, Arial, sans-serif, &amp;quot;Apple Color Emoji&amp;quot;, &amp;quot;Segoe UI Emoji&amp;quot;; font-size: 14px; font-style: normal; font-variant-caps: normal; font-weight: 400; letter-spacing: normal; orphans: auto; text-align: start; text-indent: 0px; text-transform: none; white-space: normal; widows: auto; word-spacing: 0px; -webkit-text-stroke-width: 0px;&quot;&gt;&lt;img src=&quot;https://private-user-images.githubusercontent.com/76639609/430221640-31090e08-cc83-4ea0-bd20-ea13d9234f04.png?jwt=eyJhbGciOiJIUzI1NiIsInR5cCI6IkpXVCJ9.eyJpc3MiOiJnaXRodWIuY29tIiwiYXVkIjoicmF3LmdpdGh1YnVzZXJjb250ZW50LmNvbSIsImtleSI6ImtleTUiLCJleHAiOjE3NDU0NzEzNDUsIm5iZiI6MTc0NTQ3MTA0NSwicGF0aCI6Ii83NjYzOTYwOS80MzAyMjE2NDAtMzEwOTBlMDgtY2M4My00ZWEwLWJkMjAtZWExM2Q5MjM0ZjA0LnBuZz9YLUFtei1BbGdvcml0aG09QVdTNC1ITUFDLVNIQTI1NiZYLUFtei1DcmVkZW50aWFsPUFLSUFWQ09EWUxTQTUzUFFLNFpBJTJGMjAyNTA0MjQlMkZ1cy1lYXN0LTElMkZzMyUyRmF3czRfcmVxdWVzdCZYLUFtei1EYXRlPTIwMjUwNDI0VDA1MDQwNVomWC1BbXotRXhwaXJlcz0zMDAmWC1BbXotU2lnbmF0dXJlPTBhMjQyM2FkYjU5ODJjYjBmMDI3OGRlZTIzMTExODRjMDcwYzBmMTM5ZjhhMmI0YTI1MzcyMDQwZDBmZmIwZGMmWC1BbXotU2lnbmVkSGVhZGVycz1ob3N0In0.uBy3kD3WrcdDDVJZgsoagmg8w9VwMjuszQxuFpHYJYU&quot; alt=&quot;Image&quot; style=&quot;box-sizing: content-box; border-style: none; max-width: 100%;&quot;&gt;&lt;/a&gt;" link="&lt;a target=&quot;_blank&quot; rel=&quot;noopener noreferrer&quot; href=&quot;https://private-user-images.githubusercontent.com/76639609/430221640-31090e08-cc83-4ea0-bd20-ea13d9234f04.png?jwt=eyJhbGciOiJIUzI1NiIsInR5cCI6IkpXVCJ9.eyJpc3MiOiJnaXRodWIuY29tIiwiYXVkIjoicmF3LmdpdGh1YnVzZXJjb250ZW50LmNvbSIsImtleSI6ImtleTUiLCJleHAiOjE3NDU0NzEzNDUsIm5iZiI6MTc0NTQ3MTA0NSwicGF0aCI6Ii83NjYzOTYwOS80MzAyMjE2NDAtMzEwOTBlMDgtY2M4My00ZWEwLWJkMjAtZWExM2Q5MjM0ZjA0LnBuZz9YLUFtei1BbGdvcml0aG09QVdTNC1ITUFDLVNIQTI1NiZYLUFtei1DcmVkZW50aWFsPUFLSUFWQ09EWUxTQTUzUFFLNFpBJTJGMjAyNTA0MjQlMkZ1cy1lYXN0LTElMkZzMyUyRmF3czRfcmVxdWVzdCZYLUFtei1EYXRlPTIwMjUwNDI0VDA1MDQwNVomWC1BbXotRXhwaXJlcz0zMDAmWC1BbXotU2lnbmF0dXJlPTBhMjQyM2FkYjU5ODJjYjBmMDI3OGRlZTIzMTExODRjMDcwYzBmMTM5ZjhhMmI0YTI1MzcyMDQwZDBmZmIwZGMmWC1BbXotU2lnbmVkSGVhZGVycz1ob3N0In0.uBy3kD3WrcdDDVJZgsoagmg8w9VwMjuszQxuFpHYJYU&quot; style=&quot;box-sizing: border-box; background-color: transparent; color: var(--fgColor-accent, var(--color-accent-fg)); text-decoration: underline; text-underline-offset: 0.2rem; font-family: -apple-system, BlinkMacSystemFont, &amp;quot;Segoe UI&amp;quot;, &amp;quot;Noto Sans&amp;quot;, Helvetica, Arial, sans-serif, &amp;quot;Apple Color Emoji&amp;quot;, &amp;quot;Segoe UI Emoji&amp;quot;; font-size: 14px; font-style: normal; font-variant-caps: normal; font-weight: 400; letter-spacing: normal; orphans: auto; text-align: start; text-indent: 0px; text-transform: none; white-space: normal; widows: auto; word-spacing: 0px; -webkit-text-stroke-width: 0px;&quot;&gt;&lt;img src=&quot;https://private-user-images.githubusercontent.com/76639609/430221640-31090e08-cc83-4ea0-bd20-ea13d9234f04.png?jwt=eyJhbGciOiJIUzI1NiIsInR5cCI6IkpXVCJ9.eyJpc3MiOiJnaXRodWIuY29tIiwiYXVkIjoicmF3LmdpdGh1YnVzZXJjb250ZW50LmNvbSIsImtleSI6ImtleTUiLCJleHAiOjE3NDU0NzEzNDUsIm5iZiI6MTc0NTQ3MTA0NSwicGF0aCI6Ii83NjYzOTYwOS80MzAyMjE2NDAtMzEwOTBlMDgtY2M4My00ZWEwLWJkMjAtZWExM2Q5MjM0ZjA0LnBuZz9YLUFtei1BbGdvcml0aG09QVdTNC1ITUFDLVNIQTI1NiZYLUFtei1DcmVkZW50aWFsPUFLSUFWQ09EWUxTQTUzUFFLNFpBJTJGMjAyNTA0MjQlMkZ1cy1lYXN0LTElMkZzMyUyRmF3czRfcmVxdWVzdCZYLUFtei1EYXRlPTIwMjUwNDI0VDA1MDQwNVomWC1BbXotRXhwaXJlcz0zMDAmWC1BbXotU2lnbmF0dXJlPTBhMjQyM2FkYjU5ODJjYjBmMDI3OGRlZTIzMTExODRjMDcwYzBmMTM5ZjhhMmI0YTI1MzcyMDQwZDBmZmIwZGMmWC1BbXotU2lnbmVkSGVhZGVycz1ob3N0In0.uBy3kD3WrcdDDVJZgsoagmg8w9VwMjuszQxuFpHYJYU&quot; alt=&quot;Image&quot; style=&quot;box-sizing: content-box; border-style: none; max-width: 100%;&quot;&gt;&lt;/a&gt;" id="ecSPx89vqx9fiu82OKQT-20">
                    <mxCell style="text;whiteSpace=wrap;html=1;" vertex="1" parent="1">
                        <mxGeometry x="440" y="370" width="210" height="230" as="geometry"/>
                    </mxCell>
                </UserObject>
                <mxCell id="ecSPx89vqx9fiu82OKQT-21" style="edgeStyle=none;html=1;entryX=0.444;entryY=0.043;entryDx=0;entryDy=0;entryPerimeter=0;" edge="1" parent="1" source="ecSPx89vqx9fiu82OKQT-13" target="ecSPx89vqx9fiu82OKQT-20">
                    <mxGeometry relative="1" as="geometry"/>
                </mxCell>
                <UserObject label="&lt;a target=&quot;_blank&quot; rel=&quot;noopener noreferrer&quot; href=&quot;https://private-user-images.githubusercontent.com/76639609/430221895-f989c754-fc8e-48e9-86ee-461bf803b38a.png?jwt=eyJhbGciOiJIUzI1NiIsInR5cCI6IkpXVCJ9.eyJpc3MiOiJnaXRodWIuY29tIiwiYXVkIjoicmF3LmdpdGh1YnVzZXJjb250ZW50LmNvbSIsImtleSI6ImtleTUiLCJleHAiOjE3NDU0NzEzNDUsIm5iZiI6MTc0NTQ3MTA0NSwicGF0aCI6Ii83NjYzOTYwOS80MzAyMjE4OTUtZjk4OWM3NTQtZmM4ZS00OGU5LTg2ZWUtNDYxYmY4MDNiMzhhLnBuZz9YLUFtei1BbGdvcml0aG09QVdTNC1ITUFDLVNIQTI1NiZYLUFtei1DcmVkZW50aWFsPUFLSUFWQ09EWUxTQTUzUFFLNFpBJTJGMjAyNTA0MjQlMkZ1cy1lYXN0LTElMkZzMyUyRmF3czRfcmVxdWVzdCZYLUFtei1EYXRlPTIwMjUwNDI0VDA1MDQwNVomWC1BbXotRXhwaXJlcz0zMDAmWC1BbXotU2lnbmF0dXJlPTcyNjhkY2Y5MjNlZDE1MzY4NzBjMjY2YTFmNmNiZmM0N2I4MWVkNjgxMTVkZWQwNDUyYmY1ZTQxOTcwZGUxNWUmWC1BbXotU2lnbmVkSGVhZGVycz1ob3N0In0.9nSLWRcIrbD-HHgDcJA1NyxpGGchQ9fGlnd-Cohtw6w&quot; style=&quot;box-sizing: border-box; background-color: transparent; color: var(--fgColor-accent, var(--color-accent-fg)); text-decoration: underline; text-underline-offset: 0.2rem; font-family: -apple-system, BlinkMacSystemFont, &amp;quot;Segoe UI&amp;quot;, &amp;quot;Noto Sans&amp;quot;, Helvetica, Arial, sans-serif, &amp;quot;Apple Color Emoji&amp;quot;, &amp;quot;Segoe UI Emoji&amp;quot;; font-size: 14px; font-style: normal; font-variant-caps: normal; font-weight: 400; letter-spacing: normal; orphans: auto; text-align: start; text-indent: 0px; text-transform: none; white-space: normal; widows: auto; word-spacing: 0px; -webkit-text-stroke-width: 0px;&quot;&gt;&lt;img src=&quot;https://private-user-images.githubusercontent.com/76639609/430221895-f989c754-fc8e-48e9-86ee-461bf803b38a.png?jwt=eyJhbGciOiJIUzI1NiIsInR5cCI6IkpXVCJ9.eyJpc3MiOiJnaXRodWIuY29tIiwiYXVkIjoicmF3LmdpdGh1YnVzZXJjb250ZW50LmNvbSIsImtleSI6ImtleTUiLCJleHAiOjE3NDU0NzEzNDUsIm5iZiI6MTc0NTQ3MTA0NSwicGF0aCI6Ii83NjYzOTYwOS80MzAyMjE4OTUtZjk4OWM3NTQtZmM4ZS00OGU5LTg2ZWUtNDYxYmY4MDNiMzhhLnBuZz9YLUFtei1BbGdvcml0aG09QVdTNC1ITUFDLVNIQTI1NiZYLUFtei1DcmVkZW50aWFsPUFLSUFWQ09EWUxTQTUzUFFLNFpBJTJGMjAyNTA0MjQlMkZ1cy1lYXN0LTElMkZzMyUyRmF3czRfcmVxdWVzdCZYLUFtei1EYXRlPTIwMjUwNDI0VDA1MDQwNVomWC1BbXotRXhwaXJlcz0zMDAmWC1BbXotU2lnbmF0dXJlPTcyNjhkY2Y5MjNlZDE1MzY4NzBjMjY2YTFmNmNiZmM0N2I4MWVkNjgxMTVkZWQwNDUyYmY1ZTQxOTcwZGUxNWUmWC1BbXotU2lnbmVkSGVhZGVycz1ob3N0In0.9nSLWRcIrbD-HHgDcJA1NyxpGGchQ9fGlnd-Cohtw6w&quot; alt=&quot;Image&quot; style=&quot;box-sizing: content-box; border-style: none; max-width: 100%;&quot;&gt;&lt;/a&gt;" link="&lt;a target=&quot;_blank&quot; rel=&quot;noopener noreferrer&quot; href=&quot;https://private-user-images.githubusercontent.com/76639609/430221895-f989c754-fc8e-48e9-86ee-461bf803b38a.png?jwt=eyJhbGciOiJIUzI1NiIsInR5cCI6IkpXVCJ9.eyJpc3MiOiJnaXRodWIuY29tIiwiYXVkIjoicmF3LmdpdGh1YnVzZXJjb250ZW50LmNvbSIsImtleSI6ImtleTUiLCJleHAiOjE3NDU0NzEzNDUsIm5iZiI6MTc0NTQ3MTA0NSwicGF0aCI6Ii83NjYzOTYwOS80MzAyMjE4OTUtZjk4OWM3NTQtZmM4ZS00OGU5LTg2ZWUtNDYxYmY4MDNiMzhhLnBuZz9YLUFtei1BbGdvcml0aG09QVdTNC1ITUFDLVNIQTI1NiZYLUFtei1DcmVkZW50aWFsPUFLSUFWQ09EWUxTQTUzUFFLNFpBJTJGMjAyNTA0MjQlMkZ1cy1lYXN0LTElMkZzMyUyRmF3czRfcmVxdWVzdCZYLUFtei1EYXRlPTIwMjUwNDI0VDA1MDQwNVomWC1BbXotRXhwaXJlcz0zMDAmWC1BbXotU2lnbmF0dXJlPTcyNjhkY2Y5MjNlZDE1MzY4NzBjMjY2YTFmNmNiZmM0N2I4MWVkNjgxMTVkZWQwNDUyYmY1ZTQxOTcwZGUxNWUmWC1BbXotU2lnbmVkSGVhZGVycz1ob3N0In0.9nSLWRcIrbD-HHgDcJA1NyxpGGchQ9fGlnd-Cohtw6w&quot; style=&quot;box-sizing: border-box; background-color: transparent; color: var(--fgColor-accent, var(--color-accent-fg)); text-decoration: underline; text-underline-offset: 0.2rem; font-family: -apple-system, BlinkMacSystemFont, &amp;quot;Segoe UI&amp;quot;, &amp;quot;Noto Sans&amp;quot;, Helvetica, Arial, sans-serif, &amp;quot;Apple Color Emoji&amp;quot;, &amp;quot;Segoe UI Emoji&amp;quot;; font-size: 14px; font-style: normal; font-variant-caps: normal; font-weight: 400; letter-spacing: normal; orphans: auto; text-align: start; text-indent: 0px; text-transform: none; white-space: normal; widows: auto; word-spacing: 0px; -webkit-text-stroke-width: 0px;&quot;&gt;&lt;img src=&quot;https://private-user-images.githubusercontent.com/76639609/430221895-f989c754-fc8e-48e9-86ee-461bf803b38a.png?jwt=eyJhbGciOiJIUzI1NiIsInR5cCI6IkpXVCJ9.eyJpc3MiOiJnaXRodWIuY29tIiwiYXVkIjoicmF3LmdpdGh1YnVzZXJjb250ZW50LmNvbSIsImtleSI6ImtleTUiLCJleHAiOjE3NDU0NzEzNDUsIm5iZiI6MTc0NTQ3MTA0NSwicGF0aCI6Ii83NjYzOTYwOS80MzAyMjE4OTUtZjk4OWM3NTQtZmM4ZS00OGU5LTg2ZWUtNDYxYmY4MDNiMzhhLnBuZz9YLUFtei1BbGdvcml0aG09QVdTNC1ITUFDLVNIQTI1NiZYLUFtei1DcmVkZW50aWFsPUFLSUFWQ09EWUxTQTUzUFFLNFpBJTJGMjAyNTA0MjQlMkZ1cy1lYXN0LTElMkZzMyUyRmF3czRfcmVxdWVzdCZYLUFtei1EYXRlPTIwMjUwNDI0VDA1MDQwNVomWC1BbXotRXhwaXJlcz0zMDAmWC1BbXotU2lnbmF0dXJlPTcyNjhkY2Y5MjNlZDE1MzY4NzBjMjY2YTFmNmNiZmM0N2I4MWVkNjgxMTVkZWQwNDUyYmY1ZTQxOTcwZGUxNWUmWC1BbXotU2lnbmVkSGVhZGVycz1ob3N0In0.9nSLWRcIrbD-HHgDcJA1NyxpGGchQ9fGlnd-Cohtw6w&quot; alt=&quot;Image&quot; style=&quot;box-sizing: content-box; border-style: none; max-width: 100%;&quot;&gt;&lt;/a&gt;" id="ecSPx89vqx9fiu82OKQT-22">
                    <mxCell style="text;whiteSpace=wrap;html=1;" vertex="1" parent="1">
                        <mxGeometry x="690" y="370" width="200" height="120" as="geometry"/>
                    </mxCell>
                </UserObject>
                <mxCell id="ecSPx89vqx9fiu82OKQT-23" style="edgeStyle=none;html=1;" edge="1" parent="1" source="ecSPx89vqx9fiu82OKQT-16">
                    <mxGeometry relative="1" as="geometry">
                        <mxPoint x="810" y="380" as="targetPoint"/>
                    </mxGeometry>
                </mxCell>
                <UserObject label="&lt;a target=&quot;_blank&quot; rel=&quot;noopener noreferrer&quot; href=&quot;https://private-user-images.githubusercontent.com/84889071/430227729-8b6d4675-d872-4884-bc67-bcbf30201d34.png?jwt=eyJhbGciOiJIUzI1NiIsInR5cCI6IkpXVCJ9.eyJpc3MiOiJnaXRodWIuY29tIiwiYXVkIjoicmF3LmdpdGh1YnVzZXJjb250ZW50LmNvbSIsImtleSI6ImtleTUiLCJleHAiOjE3NDU0NzE0MDgsIm5iZiI6MTc0NTQ3MTEwOCwicGF0aCI6Ii84NDg4OTA3MS80MzAyMjc3MjktOGI2ZDQ2NzUtZDg3Mi00ODg0LWJjNjctYmNiZjMwMjAxZDM0LnBuZz9YLUFtei1BbGdvcml0aG09QVdTNC1ITUFDLVNIQTI1NiZYLUFtei1DcmVkZW50aWFsPUFLSUFWQ09EWUxTQTUzUFFLNFpBJTJGMjAyNTA0MjQlMkZ1cy1lYXN0LTElMkZzMyUyRmF3czRfcmVxdWVzdCZYLUFtei1EYXRlPTIwMjUwNDI0VDA1MDUwOFomWC1BbXotRXhwaXJlcz0zMDAmWC1BbXotU2lnbmF0dXJlPTgxZmMyYjEyYTk4MWU5MThmZTAwZTgwMjYzY2Y2OTY2N2U1ODMyZWY0ZDk3YzY3YjdjMDg2YWU2NTIyNjdiNGUmWC1BbXotU2lnbmVkSGVhZGVycz1ob3N0In0.iY-B8ZXraJjFZvelXgXWUg6W10E0m8SJaQcMVWT-lH0&quot; style=&quot;box-sizing: border-box; background-color: transparent; color: var(--fgColor-accent, var(--color-accent-fg)); text-decoration: underline; text-underline-offset: 0.2rem; font-family: -apple-system, BlinkMacSystemFont, &amp;quot;Segoe UI&amp;quot;, &amp;quot;Noto Sans&amp;quot;, Helvetica, Arial, sans-serif, &amp;quot;Apple Color Emoji&amp;quot;, &amp;quot;Segoe UI Emoji&amp;quot;; font-size: 14px; font-style: normal; font-variant-caps: normal; font-weight: 400; letter-spacing: normal; orphans: auto; text-align: start; text-indent: 0px; text-transform: none; white-space: normal; widows: auto; word-spacing: 0px; -webkit-text-stroke-width: 0px;&quot;&gt;&lt;img width=&quot;725&quot; alt=&quot;Image&quot; src=&quot;https://private-user-images.githubusercontent.com/84889071/430227729-8b6d4675-d872-4884-bc67-bcbf30201d34.png?jwt=eyJhbGciOiJIUzI1NiIsInR5cCI6IkpXVCJ9.eyJpc3MiOiJnaXRodWIuY29tIiwiYXVkIjoicmF3LmdpdGh1YnVzZXJjb250ZW50LmNvbSIsImtleSI6ImtleTUiLCJleHAiOjE3NDU0NzE0MDgsIm5iZiI6MTc0NTQ3MTEwOCwicGF0aCI6Ii84NDg4OTA3MS80MzAyMjc3MjktOGI2ZDQ2NzUtZDg3Mi00ODg0LWJjNjctYmNiZjMwMjAxZDM0LnBuZz9YLUFtei1BbGdvcml0aG09QVdTNC1ITUFDLVNIQTI1NiZYLUFtei1DcmVkZW50aWFsPUFLSUFWQ09EWUxTQTUzUFFLNFpBJTJGMjAyNTA0MjQlMkZ1cy1lYXN0LTElMkZzMyUyRmF3czRfcmVxdWVzdCZYLUFtei1EYXRlPTIwMjUwNDI0VDA1MDUwOFomWC1BbXotRXhwaXJlcz0zMDAmWC1BbXotU2lnbmF0dXJlPTgxZmMyYjEyYTk4MWU5MThmZTAwZTgwMjYzY2Y2OTY2N2U1ODMyZWY0ZDk3YzY3YjdjMDg2YWU2NTIyNjdiNGUmWC1BbXotU2lnbmVkSGVhZGVycz1ob3N0In0.iY-B8ZXraJjFZvelXgXWUg6W10E0m8SJaQcMVWT-lH0&quot; style=&quot;box-sizing: content-box; border-style: none; max-width: 100%;&quot;&gt;&lt;/a&gt;" link="&lt;a target=&quot;_blank&quot; rel=&quot;noopener noreferrer&quot; href=&quot;https://private-user-images.githubusercontent.com/84889071/430227729-8b6d4675-d872-4884-bc67-bcbf30201d34.png?jwt=eyJhbGciOiJIUzI1NiIsInR5cCI6IkpXVCJ9.eyJpc3MiOiJnaXRodWIuY29tIiwiYXVkIjoicmF3LmdpdGh1YnVzZXJjb250ZW50LmNvbSIsImtleSI6ImtleTUiLCJleHAiOjE3NDU0NzE0MDgsIm5iZiI6MTc0NTQ3MTEwOCwicGF0aCI6Ii84NDg4OTA3MS80MzAyMjc3MjktOGI2ZDQ2NzUtZDg3Mi00ODg0LWJjNjctYmNiZjMwMjAxZDM0LnBuZz9YLUFtei1BbGdvcml0aG09QVdTNC1ITUFDLVNIQTI1NiZYLUFtei1DcmVkZW50aWFsPUFLSUFWQ09EWUxTQTUzUFFLNFpBJTJGMjAyNTA0MjQlMkZ1cy1lYXN0LTElMkZzMyUyRmF3czRfcmVxdWVzdCZYLUFtei1EYXRlPTIwMjUwNDI0VDA1MDUwOFomWC1BbXotRXhwaXJlcz0zMDAmWC1BbXotU2lnbmF0dXJlPTgxZmMyYjEyYTk4MWU5MThmZTAwZTgwMjYzY2Y2OTY2N2U1ODMyZWY0ZDk3YzY3YjdjMDg2YWU2NTIyNjdiNGUmWC1BbXotU2lnbmVkSGVhZGVycz1ob3N0In0.iY-B8ZXraJjFZvelXgXWUg6W10E0m8SJaQcMVWT-lH0&quot; style=&quot;box-sizing: border-box; background-color: transparent; color: var(--fgColor-accent, var(--color-accent-fg)); text-decoration: underline; text-underline-offset: 0.2rem; font-family: -apple-system, BlinkMacSystemFont, &amp;quot;Segoe UI&amp;quot;, &amp;quot;Noto Sans&amp;quot;, Helvetica, Arial, sans-serif, &amp;quot;Apple Color Emoji&amp;quot;, &amp;quot;Segoe UI Emoji&amp;quot;; font-size: 14px; font-style: normal; font-variant-caps: normal; font-weight: 400; letter-spacing: normal; orphans: auto; text-align: start; text-indent: 0px; text-transform: none; white-space: normal; widows: auto; word-spacing: 0px; -webkit-text-stroke-width: 0px;&quot;&gt;&lt;img width=&quot;725&quot; alt=&quot;Image&quot; src=&quot;https://private-user-images.githubusercontent.com/84889071/430227729-8b6d4675-d872-4884-bc67-bcbf30201d34.png?jwt=eyJhbGciOiJIUzI1NiIsInR5cCI6IkpXVCJ9.eyJpc3MiOiJnaXRodWIuY29tIiwiYXVkIjoicmF3LmdpdGh1YnVzZXJjb250ZW50LmNvbSIsImtleSI6ImtleTUiLCJleHAiOjE3NDU0NzE0MDgsIm5iZiI6MTc0NTQ3MTEwOCwicGF0aCI6Ii84NDg4OTA3MS80MzAyMjc3MjktOGI2ZDQ2NzUtZDg3Mi00ODg0LWJjNjctYmNiZjMwMjAxZDM0LnBuZz9YLUFtei1BbGdvcml0aG09QVdTNC1ITUFDLVNIQTI1NiZYLUFtei1DcmVkZW50aWFsPUFLSUFWQ09EWUxTQTUzUFFLNFpBJTJGMjAyNTA0MjQlMkZ1cy1lYXN0LTElMkZzMyUyRmF3czRfcmVxdWVzdCZYLUFtei1EYXRlPTIwMjUwNDI0VDA1MDUwOFomWC1BbXotRXhwaXJlcz0zMDAmWC1BbXotU2lnbmF0dXJlPTgxZmMyYjEyYTk4MWU5MThmZTAwZTgwMjYzY2Y2OTY2N2U1ODMyZWY0ZDk3YzY3YjdjMDg2YWU2NTIyNjdiNGUmWC1BbXotU2lnbmVkSGVhZGVycz1ob3N0In0.iY-B8ZXraJjFZvelXgXWUg6W10E0m8SJaQcMVWT-lH0&quot; style=&quot;box-sizing: content-box; border-style: none; max-width: 100%;&quot;&gt;&lt;/a&gt;" id="ecSPx89vqx9fiu82OKQT-24">
                    <mxCell style="text;whiteSpace=wrap;html=1;" vertex="1" parent="1">
                        <mxGeometry x="-350" y="350" width="215" height="40" as="geometry"/>
                    </mxCell>
                </UserObject>
                <mxCell id="ecSPx89vqx9fiu82OKQT-25" style="edgeStyle=none;html=1;entryX=0.313;entryY=0.143;entryDx=0;entryDy=0;entryPerimeter=0;" edge="1" parent="1" source="ecSPx89vqx9fiu82OKQT-5" target="ecSPx89vqx9fiu82OKQT-24">
                    <mxGeometry relative="1" as="geometry">
                        <Array as="points">
                            <mxPoint x="-180" y="330"/>
                        </Array>
                    </mxGeometry>
                </mxCell>
                <UserObject label="&lt;a target=&quot;_blank&quot; rel=&quot;noopener noreferrer&quot; href=&quot;https://private-user-images.githubusercontent.com/84889071/430227782-8e366d43-61be-49df-86f1-d91361b53e19.png?jwt=eyJhbGciOiJIUzI1NiIsInR5cCI6IkpXVCJ9.eyJpc3MiOiJnaXRodWIuY29tIiwiYXVkIjoicmF3LmdpdGh1YnVzZXJjb250ZW50LmNvbSIsImtleSI6ImtleTUiLCJleHAiOjE3NDU0NzE0MDgsIm5iZiI6MTc0NTQ3MTEwOCwicGF0aCI6Ii84NDg4OTA3MS80MzAyMjc3ODItOGUzNjZkNDMtNjFiZS00OWRmLTg2ZjEtZDkxMzYxYjUzZTE5LnBuZz9YLUFtei1BbGdvcml0aG09QVdTNC1ITUFDLVNIQTI1NiZYLUFtei1DcmVkZW50aWFsPUFLSUFWQ09EWUxTQTUzUFFLNFpBJTJGMjAyNTA0MjQlMkZ1cy1lYXN0LTElMkZzMyUyRmF3czRfcmVxdWVzdCZYLUFtei1EYXRlPTIwMjUwNDI0VDA1MDUwOFomWC1BbXotRXhwaXJlcz0zMDAmWC1BbXotU2lnbmF0dXJlPTExMjUyNmU0YjYxOGM0ZTY1NjdjZDE4ZjQ3ZWRmZTA0Yzk0MTU0NzViNTUwNjRjYjg0MTNkN2QxZTBiNmI5ZDMmWC1BbXotU2lnbmVkSGVhZGVycz1ob3N0In0.Hdr7uYP7ypXbCwcxcujYskZSbXzrJIKcgRtUrw0uoWg&quot; style=&quot;box-sizing: border-box; background-color: transparent; color: var(--fgColor-accent, var(--color-accent-fg)); text-decoration: underline; text-underline-offset: 0.2rem; font-family: -apple-system, BlinkMacSystemFont, &amp;quot;Segoe UI&amp;quot;, &amp;quot;Noto Sans&amp;quot;, Helvetica, Arial, sans-serif, &amp;quot;Apple Color Emoji&amp;quot;, &amp;quot;Segoe UI Emoji&amp;quot;; font-size: 14px; font-style: normal; font-variant-caps: normal; font-weight: 400; letter-spacing: normal; orphans: auto; text-align: start; text-indent: 0px; text-transform: none; white-space: normal; widows: auto; word-spacing: 0px; -webkit-text-stroke-width: 0px;&quot;&gt;&lt;img width=&quot;952&quot; alt=&quot;Image&quot; src=&quot;https://private-user-images.githubusercontent.com/84889071/430227782-8e366d43-61be-49df-86f1-d91361b53e19.png?jwt=eyJhbGciOiJIUzI1NiIsInR5cCI6IkpXVCJ9.eyJpc3MiOiJnaXRodWIuY29tIiwiYXVkIjoicmF3LmdpdGh1YnVzZXJjb250ZW50LmNvbSIsImtleSI6ImtleTUiLCJleHAiOjE3NDU0NzE0MDgsIm5iZiI6MTc0NTQ3MTEwOCwicGF0aCI6Ii84NDg4OTA3MS80MzAyMjc3ODItOGUzNjZkNDMtNjFiZS00OWRmLTg2ZjEtZDkxMzYxYjUzZTE5LnBuZz9YLUFtei1BbGdvcml0aG09QVdTNC1ITUFDLVNIQTI1NiZYLUFtei1DcmVkZW50aWFsPUFLSUFWQ09EWUxTQTUzUFFLNFpBJTJGMjAyNTA0MjQlMkZ1cy1lYXN0LTElMkZzMyUyRmF3czRfcmVxdWVzdCZYLUFtei1EYXRlPTIwMjUwNDI0VDA1MDUwOFomWC1BbXotRXhwaXJlcz0zMDAmWC1BbXotU2lnbmF0dXJlPTExMjUyNmU0YjYxOGM0ZTY1NjdjZDE4ZjQ3ZWRmZTA0Yzk0MTU0NzViNTUwNjRjYjg0MTNkN2QxZTBiNmI5ZDMmWC1BbXotU2lnbmVkSGVhZGVycz1ob3N0In0.Hdr7uYP7ypXbCwcxcujYskZSbXzrJIKcgRtUrw0uoWg&quot; style=&quot;box-sizing: content-box; border-style: none; max-width: 100%;&quot;&gt;&lt;/a&gt;" link="&lt;a target=&quot;_blank&quot; rel=&quot;noopener noreferrer&quot; href=&quot;https://private-user-images.githubusercontent.com/84889071/430227782-8e366d43-61be-49df-86f1-d91361b53e19.png?jwt=eyJhbGciOiJIUzI1NiIsInR5cCI6IkpXVCJ9.eyJpc3MiOiJnaXRodWIuY29tIiwiYXVkIjoicmF3LmdpdGh1YnVzZXJjb250ZW50LmNvbSIsImtleSI6ImtleTUiLCJleHAiOjE3NDU0NzE0MDgsIm5iZiI6MTc0NTQ3MTEwOCwicGF0aCI6Ii84NDg4OTA3MS80MzAyMjc3ODItOGUzNjZkNDMtNjFiZS00OWRmLTg2ZjEtZDkxMzYxYjUzZTE5LnBuZz9YLUFtei1BbGdvcml0aG09QVdTNC1ITUFDLVNIQTI1NiZYLUFtei1DcmVkZW50aWFsPUFLSUFWQ09EWUxTQTUzUFFLNFpBJTJGMjAyNTA0MjQlMkZ1cy1lYXN0LTElMkZzMyUyRmF3czRfcmVxdWVzdCZYLUFtei1EYXRlPTIwMjUwNDI0VDA1MDUwOFomWC1BbXotRXhwaXJlcz0zMDAmWC1BbXotU2lnbmF0dXJlPTExMjUyNmU0YjYxOGM0ZTY1NjdjZDE4ZjQ3ZWRmZTA0Yzk0MTU0NzViNTUwNjRjYjg0MTNkN2QxZTBiNmI5ZDMmWC1BbXotU2lnbmVkSGVhZGVycz1ob3N0In0.Hdr7uYP7ypXbCwcxcujYskZSbXzrJIKcgRtUrw0uoWg&quot; style=&quot;box-sizing: border-box; background-color: transparent; color: var(--fgColor-accent, var(--color-accent-fg)); text-decoration: underline; text-underline-offset: 0.2rem; font-family: -apple-system, BlinkMacSystemFont, &amp;quot;Segoe UI&amp;quot;, &amp;quot;Noto Sans&amp;quot;, Helvetica, Arial, sans-serif, &amp;quot;Apple Color Emoji&amp;quot;, &amp;quot;Segoe UI Emoji&amp;quot;; font-size: 14px; font-style: normal; font-variant-caps: normal; font-weight: 400; letter-spacing: normal; orphans: auto; text-align: start; text-indent: 0px; text-transform: none; white-space: normal; widows: auto; word-spacing: 0px; -webkit-text-stroke-width: 0px;&quot;&gt;&lt;img width=&quot;952&quot; alt=&quot;Image&quot; src=&quot;https://private-user-images.githubusercontent.com/84889071/430227782-8e366d43-61be-49df-86f1-d91361b53e19.png?jwt=eyJhbGciOiJIUzI1NiIsInR5cCI6IkpXVCJ9.eyJpc3MiOiJnaXRodWIuY29tIiwiYXVkIjoicmF3LmdpdGh1YnVzZXJjb250ZW50LmNvbSIsImtleSI6ImtleTUiLCJleHAiOjE3NDU0NzE0MDgsIm5iZiI6MTc0NTQ3MTEwOCwicGF0aCI6Ii84NDg4OTA3MS80MzAyMjc3ODItOGUzNjZkNDMtNjFiZS00OWRmLTg2ZjEtZDkxMzYxYjUzZTE5LnBuZz9YLUFtei1BbGdvcml0aG09QVdTNC1ITUFDLVNIQTI1NiZYLUFtei1DcmVkZW50aWFsPUFLSUFWQ09EWUxTQTUzUFFLNFpBJTJGMjAyNTA0MjQlMkZ1cy1lYXN0LTElMkZzMyUyRmF3czRfcmVxdWVzdCZYLUFtei1EYXRlPTIwMjUwNDI0VDA1MDUwOFomWC1BbXotRXhwaXJlcz0zMDAmWC1BbXotU2lnbmF0dXJlPTExMjUyNmU0YjYxOGM0ZTY1NjdjZDE4ZjQ3ZWRmZTA0Yzk0MTU0NzViNTUwNjRjYjg0MTNkN2QxZTBiNmI5ZDMmWC1BbXotU2lnbmVkSGVhZGVycz1ob3N0In0.Hdr7uYP7ypXbCwcxcujYskZSbXzrJIKcgRtUrw0uoWg&quot; style=&quot;box-sizing: content-box; border-style: none; max-width: 100%;&quot;&gt;&lt;/a&gt;" id="ecSPx89vqx9fiu82OKQT-26">
                    <mxCell style="text;whiteSpace=wrap;html=1;" vertex="1" parent="1">
                        <mxGeometry x="-120" y="350" width="230" height="20" as="geometry"/>
                    </mxCell>
                </UserObject>
                <mxCell id="ecSPx89vqx9fiu82OKQT-28" style="edgeStyle=none;html=1;entryX=0.565;entryY=0.5;entryDx=0;entryDy=0;entryPerimeter=0;" edge="1" parent="1" source="ecSPx89vqx9fiu82OKQT-11" target="ecSPx89vqx9fiu82OKQT-26">
                    <mxGeometry relative="1" as="geometry"/>
                </mxCell>
                <UserObject label="&lt;a target=&quot;_blank&quot; rel=&quot;noopener noreferrer&quot; href=&quot;https://private-user-images.githubusercontent.com/84889071/430227845-cc5a9e94-c00a-4cb9-83f5-1c490ca61552.png?jwt=eyJhbGciOiJIUzI1NiIsInR5cCI6IkpXVCJ9.eyJpc3MiOiJnaXRodWIuY29tIiwiYXVkIjoicmF3LmdpdGh1YnVzZXJjb250ZW50LmNvbSIsImtleSI6ImtleTUiLCJleHAiOjE3NDU0NzE0MDgsIm5iZiI6MTc0NTQ3MTEwOCwicGF0aCI6Ii84NDg4OTA3MS80MzAyMjc4NDUtY2M1YTllOTQtYzAwYS00Y2I5LTgzZjUtMWM0OTBjYTYxNTUyLnBuZz9YLUFtei1BbGdvcml0aG09QVdTNC1ITUFDLVNIQTI1NiZYLUFtei1DcmVkZW50aWFsPUFLSUFWQ09EWUxTQTUzUFFLNFpBJTJGMjAyNTA0MjQlMkZ1cy1lYXN0LTElMkZzMyUyRmF3czRfcmVxdWVzdCZYLUFtei1EYXRlPTIwMjUwNDI0VDA1MDUwOFomWC1BbXotRXhwaXJlcz0zMDAmWC1BbXotU2lnbmF0dXJlPTYwZDJmMGMwZDgxNTc2ZTY5YmVjYmNmNzg3NWRmNmM4MTUyMDY1MzUwYjgxNTVlODM4ZWZkYTJmNTFlYWQxZDkmWC1BbXotU2lnbmVkSGVhZGVycz1ob3N0In0.0iKve-TdnrtYxv45mX4aVWin1nk8ZieEKOHQvYABoB8&quot; style=&quot;box-sizing: border-box; background-color: transparent; color: var(--fgColor-accent, var(--color-accent-fg)); text-decoration: underline; margin-bottom: 0px !important; text-underline-offset: 0.2rem; font-family: -apple-system, BlinkMacSystemFont, &amp;quot;Segoe UI&amp;quot;, &amp;quot;Noto Sans&amp;quot;, Helvetica, Arial, sans-serif, &amp;quot;Apple Color Emoji&amp;quot;, &amp;quot;Segoe UI Emoji&amp;quot;; font-size: 14px; font-style: normal; font-variant-caps: normal; font-weight: 400; letter-spacing: normal; orphans: auto; text-align: start; text-indent: 0px; text-transform: none; white-space: normal; widows: auto; word-spacing: 0px; -webkit-text-stroke-width: 0px;&quot;&gt;&lt;img width=&quot;939&quot; alt=&quot;Image&quot; src=&quot;https://private-user-images.githubusercontent.com/84889071/430227845-cc5a9e94-c00a-4cb9-83f5-1c490ca61552.png?jwt=eyJhbGciOiJIUzI1NiIsInR5cCI6IkpXVCJ9.eyJpc3MiOiJnaXRodWIuY29tIiwiYXVkIjoicmF3LmdpdGh1YnVzZXJjb250ZW50LmNvbSIsImtleSI6ImtleTUiLCJleHAiOjE3NDU0NzE0MDgsIm5iZiI6MTc0NTQ3MTEwOCwicGF0aCI6Ii84NDg4OTA3MS80MzAyMjc4NDUtY2M1YTllOTQtYzAwYS00Y2I5LTgzZjUtMWM0OTBjYTYxNTUyLnBuZz9YLUFtei1BbGdvcml0aG09QVdTNC1ITUFDLVNIQTI1NiZYLUFtei1DcmVkZW50aWFsPUFLSUFWQ09EWUxTQTUzUFFLNFpBJTJGMjAyNTA0MjQlMkZ1cy1lYXN0LTElMkZzMyUyRmF3czRfcmVxdWVzdCZYLUFtei1EYXRlPTIwMjUwNDI0VDA1MDUwOFomWC1BbXotRXhwaXJlcz0zMDAmWC1BbXotU2lnbmF0dXJlPTYwZDJmMGMwZDgxNTc2ZTY5YmVjYmNmNzg3NWRmNmM4MTUyMDY1MzUwYjgxNTVlODM4ZWZkYTJmNTFlYWQxZDkmWC1BbXotU2lnbmVkSGVhZGVycz1ob3N0In0.0iKve-TdnrtYxv45mX4aVWin1nk8ZieEKOHQvYABoB8&quot; style=&quot;box-sizing: content-box; border-style: none; max-width: 100%;&quot;&gt;&lt;/a&gt;" link="&lt;a target=&quot;_blank&quot; rel=&quot;noopener noreferrer&quot; href=&quot;https://private-user-images.githubusercontent.com/84889071/430227845-cc5a9e94-c00a-4cb9-83f5-1c490ca61552.png?jwt=eyJhbGciOiJIUzI1NiIsInR5cCI6IkpXVCJ9.eyJpc3MiOiJnaXRodWIuY29tIiwiYXVkIjoicmF3LmdpdGh1YnVzZXJjb250ZW50LmNvbSIsImtleSI6ImtleTUiLCJleHAiOjE3NDU0NzE0MDgsIm5iZiI6MTc0NTQ3MTEwOCwicGF0aCI6Ii84NDg4OTA3MS80MzAyMjc4NDUtY2M1YTllOTQtYzAwYS00Y2I5LTgzZjUtMWM0OTBjYTYxNTUyLnBuZz9YLUFtei1BbGdvcml0aG09QVdTNC1ITUFDLVNIQTI1NiZYLUFtei1DcmVkZW50aWFsPUFLSUFWQ09EWUxTQTUzUFFLNFpBJTJGMjAyNTA0MjQlMkZ1cy1lYXN0LTElMkZzMyUyRmF3czRfcmVxdWVzdCZYLUFtei1EYXRlPTIwMjUwNDI0VDA1MDUwOFomWC1BbXotRXhwaXJlcz0zMDAmWC1BbXotU2lnbmF0dXJlPTYwZDJmMGMwZDgxNTc2ZTY5YmVjYmNmNzg3NWRmNmM4MTUyMDY1MzUwYjgxNTVlODM4ZWZkYTJmNTFlYWQxZDkmWC1BbXotU2lnbmVkSGVhZGVycz1ob3N0In0.0iKve-TdnrtYxv45mX4aVWin1nk8ZieEKOHQvYABoB8&quot; style=&quot;box-sizing: border-box; background-color: transparent; color: var(--fgColor-accent, var(--color-accent-fg)); text-decoration: underline; margin-bottom: 0px !important; text-underline-offset: 0.2rem; font-family: -apple-system, BlinkMacSystemFont, &amp;quot;Segoe UI&amp;quot;, &amp;quot;Noto Sans&amp;quot;, Helvetica, Arial, sans-serif, &amp;quot;Apple Color Emoji&amp;quot;, &amp;quot;Segoe UI Emoji&amp;quot;; font-size: 14px; font-style: normal; font-variant-caps: normal; font-weight: 400; letter-spacing: normal; orphans: auto; text-align: start; text-indent: 0px; text-transform: none; white-space: normal; widows: auto; word-spacing: 0px; -webkit-text-stroke-width: 0px;&quot;&gt;&lt;img width=&quot;939&quot; alt=&quot;Image&quot; src=&quot;https://private-user-images.githubusercontent.com/84889071/430227845-cc5a9e94-c00a-4cb9-83f5-1c490ca61552.png?jwt=eyJhbGciOiJIUzI1NiIsInR5cCI6IkpXVCJ9.eyJpc3MiOiJnaXRodWIuY29tIiwiYXVkIjoicmF3LmdpdGh1YnVzZXJjb250ZW50LmNvbSIsImtleSI6ImtleTUiLCJleHAiOjE3NDU0NzE0MDgsIm5iZiI6MTc0NTQ3MTEwOCwicGF0aCI6Ii84NDg4OTA3MS80MzAyMjc4NDUtY2M1YTllOTQtYzAwYS00Y2I5LTgzZjUtMWM0OTBjYTYxNTUyLnBuZz9YLUFtei1BbGdvcml0aG09QVdTNC1ITUFDLVNIQTI1NiZYLUFtei1DcmVkZW50aWFsPUFLSUFWQ09EWUxTQTUzUFFLNFpBJTJGMjAyNTA0MjQlMkZ1cy1lYXN0LTElMkZzMyUyRmF3czRfcmVxdWVzdCZYLUFtei1EYXRlPTIwMjUwNDI0VDA1MDUwOFomWC1BbXotRXhwaXJlcz0zMDAmWC1BbXotU2lnbmF0dXJlPTYwZDJmMGMwZDgxNTc2ZTY5YmVjYmNmNzg3NWRmNmM4MTUyMDY1MzUwYjgxNTVlODM4ZWZkYTJmNTFlYWQxZDkmWC1BbXotU2lnbmVkSGVhZGVycz1ob3N0In0.0iKve-TdnrtYxv45mX4aVWin1nk8ZieEKOHQvYABoB8&quot; style=&quot;box-sizing: content-box; border-style: none; max-width: 100%;&quot;&gt;&lt;/a&gt;" id="ecSPx89vqx9fiu82OKQT-29">
                    <mxCell style="text;whiteSpace=wrap;html=1;" vertex="1" parent="1">
                        <mxGeometry x="130" y="350" width="230" height="80" as="geometry"/>
                    </mxCell>
                </UserObject>
                <mxCell id="ecSPx89vqx9fiu82OKQT-30" style="edgeStyle=none;html=1;entryX=0.565;entryY=0.125;entryDx=0;entryDy=0;entryPerimeter=0;" edge="1" parent="1" source="ecSPx89vqx9fiu82OKQT-7" target="ecSPx89vqx9fiu82OKQT-29">
                    <mxGeometry relative="1" as="geometry"/>
                </mxCell>
            </root>
        </mxGraphModel>
    </diagram>
</mxfile>